<svg width="734" height="640" viewBox="0 0 734 640" fill="none" xmlns="http://www.w3.org/2000/svg" xmlns:xlink="http://www.w3.org/1999/xlink">
<rect width="734" height="640" fill="url(#pattern0)"/>
<defs>
<pattern id="pattern0" patternContentUnits="objectBoundingBox" width="1" height="1">
<use xlink:href="#image0_1_86" transform="translate(-0.00408719) scale(0.0013624 0.0015625)"/>
</pattern>
<image id="image0_1_86" width="740" height="640" xlink:href="img/home.png"/>
</defs>
<path d="M224 534.7L444.8 542.7L514 529V550.7L445.5 570.4L224 559.4V534.7Z" fill="#3595F6" fill-opacity="0.75"/>
<path d="M225 533.7V508.7L445.3 512L515 508.7V528.7L445.7 541.7L225 533.7Z" fill="#3595F6" fill-opacity="0.75"/>
<path d="M225 507.7V482.7H446H515V505.7L447 512.7L225 507.7Z" fill="#3595F6" fill-opacity="0.75"/>
<path d="M225 483.7V458.7L446.3 455L514 461.7V483.7H446" fill="#3595F6" fill-opacity="0.75"/>
<path d="M225 457.7V431.7L446.5 428.4L515 439.4V460.7L446 454L225 457.7Z" fill="#3595F6" fill-opacity="0.75"/>
<path d="M224 430.7V407L445 394.7L516 417.7V439L445 426.7L224 430.7Z" fill="#3595F6" fill-opacity="0.75"/>
<path d="M224 408.7V383.7L446.2 367.4L516 396V416.7L445.7 395L224 408.7Z" fill="#3595F6" fill-opacity="0.75"/>
<path d="M224 383.7V358.7L446.5 338.4L516 375V395.7L444 367L224 383.7Z" fill="#3595F6" fill-opacity="0.75"/>
<path d="M224 357.7V333.7L447 309L516 353V374.7L446.7 336.7L224 357.7Z" fill="#3595F6" fill-opacity="0.75"/>
<path d="M224 332.7V308.7L446.5 280L516 331V351.7L445.7 309.4L224 332.7Z" fill="#3595F6" fill-opacity="0.75"/>
<path d="M223 308.7V284.7L445.3 251.7L516 311V330.7L446 280L223 308.7Z" fill="#3595F6" fill-opacity="0.75"/>
<path d="M224 283.7V259.7L445.2 224.7L515 288.7V309.7L446.3 251.4L224 283.7Z" fill="#3595F6" fill-opacity="0.75"/>
<path d="M224 259.7V234.7L446.3 196.7L515 267V287.7L446 223.7L224 259.7Z" fill="#3595F6" fill-opacity="0.75"/>
<path d="M224 233.7V208.7L444.8 165L515 244V266.7L446 193.4L224 233.7Z" fill="#3595F6" fill-opacity="0.75"/>
<path d="M225 209.7V184.7L445 136.7L515 221.7V244.7L444.3 165.4L225 209.7Z" fill="#3595F6" fill-opacity="0.75"/>
<path d="M224 184.7V159.7L443.8 107.7L515 200V222.7L445.3 136.4L224 184.7Z" fill="#3595F6" fill-opacity="0.75"/>
<path d="M224 159.7V133.7L446 77L515 178.7V199.7L445.7 108L224 159.7Z" fill="#3595F6" fill-opacity="0.75"/>
</svg>
